<?xml version="1.0" encoding="UTF-8"?>
<svg id="Font1_-3_copy" data-name="Font1 -3 copy" xmlns="http://www.w3.org/2000/svg" viewBox="0 0 359.97 276">
  <defs>
    <style>
      .cls-1 {
        fill: #fff;
      }
    </style>
  </defs>
  <g id="Group_2_copy_2" data-name="Group 2 copy 2">
    <g id="Group_4" data-name="Group 4">
      <g id="Vector_Smart_Object_copy_Image" data-name="Vector Smart Object copy Image">
        <path class="cls-1" d="M342.39,232c-3.73,3.83-8.66,3.63-13.39,3.81-26.7,.99-53.32,2.84-79.7,7.17-9.31,1.52-18.53,3.56-27.79,5.39-1.37,.27-2.7,1.02-4.3,.16,23.54-13.92,49.15-21.18,75.77-25.45,4.41-.71,8.83-1.32,13.08-2.85,9.89-3.56,14.43-9.66,14.45-20.14,.06-36.93,.04-73.87,0-110.8,0-7.9,.47-8.65,8.25-10.03,2.12-.38,4.28-.44,6.42-.71,3.52-.44,6.02,.79,7.2,4.26V232Z"/>
        <path class="cls-1" d="M141.45,248.03c-9.58-1.78-19.15-3.65-28.75-5.31-22.44-3.87-45.09-5.61-67.8-6.79-5.47-.28-10.94-.59-16.41-.87-8.59-.44-9.89-1.76-9.9-10.55-.03-32.49-.01-64.98-.01-97.46,0-13.59-.04-27.18,.05-40.78,.05-7.4,2.18-9.13,9.46-8.13,12.37,1.7,12.32,1.7,12.32,14-.01,35.14,.01,70.28,.04,105.42,.01,13.82,5.46,20.77,19.21,23.48,16.25,3.2,32.66,5.65,48.42,10.99,11.72,3.97,23.13,8.63,33.38,16Z"/>
        <path class="cls-1" d="M195.98,242.69c19.14-19.79,41.96-32.82,67.95-40.62,4.11-1.23,8.39-1.93,12.26-3.95,6.02-3.14,9.52-7.94,10.54-14.7,.97-6.44,.65-12.9,.66-19.35,.06-30.32,0-60.64-.02-90.96,0-6.73,.43-7.24,7.43-8.54,11.8-2.19,12.71-1.46,12.71,10.26-.01,41.09-.02,82.18-.03,123.26,0,9.75-.94,10.45-10.75,11.12-25.32,1.74-48.96,9.68-71.83,20.17-8.12,3.72-16.02,7.94-24.04,11.89-1.41,.69-2.64,2.1-4.89,1.41Z"/>
        <path class="cls-1" d="M162.96,241.78c-2.18,.04-3.69-1.37-5.34-2.23-24.74-12.97-50.16-24.14-77.94-28.87-6.36-1.08-12.84-1.46-19.26-2.28-5.75-.73-6.87-1.98-6.91-8.14-.09-13.42-.06-26.85-.06-40.27,0-29.5-.02-59,.01-88.5,0-7.86,1.41-9.01,9.15-7.9,1.15,.17,2.31,.24,3.46,.42,6.72,1.01,7.51,1.94,7.51,8.57,0,33.48,0,66.95,.02,100.43,0,17.96,3.88,23.12,21,27.95,24.67,6.96,46.7,18.66,65.35,36.38,1.22,1.16,3.11,1.99,3.01,4.44Z"/>
        <path class="cls-1" d="M122.36,90.92c-5.66-.17-9.79,.01-13.87-1.07-4.67-1.25-7.37-4.13-8.26-8.83-1.15-6.08-1.09-12.14-.06-18.24,.86-5.1,3.97-7.9,8.85-8.72,7.89-1.33,15.83-1.38,23.74-.08,4.75,.78,7.66,3.44,8.57,8.33,1.07,5.76,1.13,11.54,.33,17.28-.96,6.91-3.49,9.43-10.44,10.63-3.41,.59-6.91,.57-8.86,.71Z"/>
        <path class="cls-1" d="M142.68,41.53c-2.42-.07-4.19,0-5.93-.46-2-.53-3.15-1.77-3.53-3.78-.49-2.6-.47-5.2-.03-7.81,.37-2.18,1.7-3.38,3.78-3.73,3.38-.57,6.77-.59,10.16-.03,2.03,.34,3.28,1.47,3.67,3.56,.46,2.46,.48,4.94,.14,7.39-.41,2.96-1.49,4.04-4.47,4.55-1.46,.25-2.96,.24-3.79,.31Z"/>
        <path class="cls-1" d="M207.05,55.83c-4.6-.14-7.96,.01-11.27-.87-3.79-1.01-5.99-3.36-6.71-7.18-.93-4.94-.89-9.87-.05-14.82,.7-4.14,3.22-6.42,7.19-7.09,6.41-1.08,12.86-1.12,19.29-.06,3.86,.64,6.23,2.8,6.96,6.77,.87,4.68,.92,9.38,.27,14.04-.78,5.62-2.84,7.66-8.49,8.63-2.77,.48-5.62,.46-7.2,.58Z"/>
        <path class="cls-1" d="M145.47,98.73c16.32-.29,18.31,1.75,17.86,18-.29,10.62-3.11,13.47-13.69,13.78-3.14,.09-6.3,.13-9.43-.03-1.96-.1-3.97-.38-5.85-.94-6.47-1.94-8.46-7.95-7.13-21.02,.63-6.18,3.53-9.18,9.81-9.75,2.79-.25,5.62-.04,8.43-.04Z"/>
        <path class="cls-1" d="M203.89,118.39c-13.9,.23-16.05-1.97-15.78-15.93,.17-8.52,2.76-11.19,11.32-11.51,3.14-.12,6.28-.03,9.43-.03,2.35,0,4.93,.14,6.67,1.53,6.25,4.99,3.99,12,3.63,18.38-.27,4.92-3.72,7.12-8.34,7.52-2.3,.2-4.62,.03-6.94,.03Z"/>
        <path class="cls-1" d="M179.93,144.11c15.09,.23,16.54,1.74,16.19,15.91-.22,9.04-2.46,11.47-11.44,12-4.13,.24-8.28,.44-12.39-.54-6.7-1.6-8.27-5.26-7.42-17.53,.46-6.68,2.62-8.98,9-9.51,2.31-.19,4.64-.25,6.05-.33Z"/>
        <path class="cls-1" d="M142.95,167.51c.15,10.72-1.87,13.03-12.33,13.36-18.19,.57-18.18-3.65-17.16-19.84,.25-3.99,3.13-6.24,7.03-6.43,5.12-.26,10.28-.26,15.41-.04,4.25,.19,6.58,2.84,7.02,7,.21,1.96,.04,3.97,.04,5.95Z"/>
        <path class="cls-1" d="M250.01,136.59c13.38-.03,17.61,5.88,14.14,19.54-.94,3.69-3.13,5.68-6.82,6.21-4.95,.72-9.89,.85-14.86,.05-3.66-.59-6.11-2.38-6.87-6.14-.16-.81-.43-1.6-.54-2.42-1.84-13.55,1.34-17.2,14.96-17.24Z"/>
        <path class="cls-1" d="M215.32,162.34c11.73-.06,16.82,7.91,12.14,18.97-.91,2.16-2.55,3.48-4.8,3.87-2.27,.39-4.59,.67-6.89,.75-11.9,.4-14.31-2.04-13.97-13.95,.21-7.2,2.33-9.36,9.56-9.63,1.32-.05,2.64,0,3.97,0Z"/>
        <path class="cls-1" d="M247.81,66.94c1.82,0,3.65-.12,5.46,.02,4.03,.33,6.18,2.4,6.56,6.62,1.17,12.91-1.34,15.65-14.42,15.07-3.65-.16-7.9-.16-9.14-4.41-1.43-4.9-2.15-10.36,.9-14.85,2.41-3.55,6.92-2.34,10.64-2.45Z"/>
        <path class="cls-1" d="M185.82,72.08c.04,8.78-1.39,10.35-9.55,11.16-.82,.08-1.65,.15-2.47,.15-10.11-.08-14.86-7.71-10.69-17.08,.74-1.66,1.97-2.77,3.62-3.09,4.9-.95,9.94-1.27,14.75,0,4.81,1.27,3.97,5.81,4.35,8.87Z"/>
        <path class="cls-1" d="M251.2,121.67c-9.92,.89-11.26-4.24-9.45-13.94,.33-1.79,1.62-2.9,3.41-3.16,2.28-.33,4.58-.67,6.88-.67,7.75,0,9.39,1.71,9.26,9.29-.11,7.11-1.71,8.45-10.1,8.47Z"/>
        <path class="cls-1" d="M207.65,144.63c-7.94-.1-11.92-6.97-8.27-13.53,.78-1.41,2.09-2.13,3.61-2.31,1.63-.2,3.29-.22,4.93-.23,8.15-.02,11.79,5.49,8.45,12.96-1.87,4.19-5.91,2.6-8.72,3.1Z"/>
        <path class="cls-1" d="M109.33,113.6c7.61,0,8.87,1.11,8.89,7.81,.01,6.8-1.52,8.14-9.26,8.11-7.12-.02-8.71-1.53-8.69-8.22,.02-6.53,1.38-7.69,9.06-7.7Z"/>
        <path class="cls-1" d="M167.51,186.97c6.05,.03,7.3,1.19,7.19,6.71-.1,5.13-1.7,6.46-7.73,6.41-5.81-.04-7.12-1.33-7.07-6.94,.05-5.36,1.09-6.21,7.61-6.18Z"/>
      </g>
    </g>
  </g>
</svg>