<svg id="svg" version="1.1" xmlns="http://www.w3.org/2000/svg" xmlns:xlink="http://www.w3.org/1999/xlink" width="400" height="298.3521248915872" viewBox="0, 0, 400,298.3521248915872"><g id="svgg"><path id="path0" d="M221.194 41.984 C 208.525 42.879,206.731 45.033,207.305 58.657 C 207.704 68.119,210.447 69.933,224.328 69.916 C 234.877 69.903,239.476 68.407,240.587 64.627 C 241.592 61.210,241.222 48.265,240.055 45.998 C 238.623 43.217,229.931 41.366,221.194 41.984 M153.232 43.548 C 149.954 45.077,149.677 54.337,152.859 55.982 C 155.282 57.235,163.412 57.201,166.085 55.927 C 169.317 54.385,169.235 45.714,165.970 43.886 C 164.081 42.829,155.275 42.596,153.232 43.548 M126.866 68.948 C 117.865 69.581,115.996 73.498,116.922 89.788 C 117.341 97.156,118.650 99.482,123.171 100.891 C 131.411 103.459,150.464 102.839,154.972 99.855 C 158.089 97.793,158.623 95.705,158.642 85.522 C 158.673 69.155,158.022 68.616,138.358 68.708 C 133.597 68.730,128.425 68.838,126.866 68.948 M187.164 76.892 C 182.010 77.506,180.587 79.099,180.113 84.785 C 179.377 93.603,184.141 96.658,196.418 95.242 C 202.909 94.493,203.433 93.800,203.433 85.970 C 203.433 77.456,203.070 77.112,193.881 76.899 C 190.761 76.827,187.739 76.824,187.164 76.892 M71.768 77.879 C 69.165 79.062,69.403 72.496,69.403 143.134 C 69.403 210.015,69.347 207.501,70.862 208.924 C 71.941 209.937,73.967 210.462,78.507 210.903 C 83.302 211.369,84.065 211.468,95.821 213.139 C 111.549 215.375,124.115 218.539,139.104 224.036 C 141.157 224.789,143.709 225.717,144.776 226.099 C 147.866 227.204,160.581 232.524,163.731 234.030 C 170.813 237.414,181.932 242.389,182.199 242.292 C 182.598 242.146,180.519 240.144,175.970 236.291 C 158.620 221.596,134.719 209.805,110.612 204.047 C 99.458 201.383,94.524 198.366,91.885 192.596 C 89.554 187.499,89.560 187.653,89.549 131.194 C 89.538 76.264,89.707 80.401,87.426 79.334 C 84.684 78.051,73.648 77.025,71.768 77.879 M320.597 78.091 C 320.351 78.151,318.094 78.391,315.581 78.624 C 311.523 78.999,310.879 79.135,309.811 79.841 C 307.648 81.273,307.810 77.211,307.671 133.306 C 307.538 186.941,307.527 187.366,306.119 191.409 C 303.749 198.216,299.606 201.136,288.209 204.030 C 271.457 208.283,259.013 213.006,246.180 219.982 C 234.765 226.186,228.555 230.483,217.688 239.697 C 212.347 244.224,212.431 244.203,228.731 236.986 C 230.250 236.314,232.366 235.387,233.433 234.925 C 234.500 234.464,236.649 233.525,238.209 232.839 C 270.146 218.791,292.447 212.841,318.657 211.376 C 325.158 211.013,326.695 210.339,327.442 207.522 C 327.935 205.665,328.008 81.917,327.517 80.532 C 326.720 78.280,323.879 77.278,320.597 78.091 M260.299 80.917 C 256.657 81.545,255.263 83.630,254.997 88.845 C 254.710 94.461,255.551 97.638,257.695 99.031 L 258.955 99.851 267.164 99.851 C 278.963 99.851,279.220 99.654,279.230 90.603 C 279.237 83.892,278.761 82.646,275.672 81.304 C 274.274 80.696,263.196 80.418,260.299 80.917 M37.911 91.075 C 36.224 91.405,35.285 92.099,34.498 93.599 L 33.881 94.776 33.803 161.631 C 33.721 231.791,33.705 230.918,35.088 232.731 C 36.812 234.990,36.280 234.935,76.269 237.023 C 81.962 237.320,102.279 239.041,107.761 239.690 C 128.290 242.121,138.862 243.542,144.478 244.624 C 146.530 245.019,151.014 245.892,154.443 246.562 C 161.477 247.937,161.652 247.934,159.045 246.486 C 140.923 236.419,106.985 226.561,79.701 223.438 C 66.101 221.882,57.772 215.816,56.125 206.269 C 55.887 204.892,55.773 188.537,55.731 150.000 L 55.672 95.672 54.994 94.582 C 54.225 93.346,53.173 92.842,49.851 92.121 C 47.826 91.681,40.288 90.699,39.554 90.779 C 39.389 90.797,38.649 90.930,37.911 91.075 M352.537 91.787 C 344.881 92.909,343.527 93.336,342.270 95.022 L 341.642 95.865 341.493 151.887 L 341.343 207.910 340.560 210.017 C 339.168 213.760,337.652 215.889,334.920 217.942 C 330.446 221.304,327.161 222.127,296.976 227.444 C 277.003 230.963,257.374 237.268,241.261 245.340 C 235.243 248.355,235.366 248.528,242.472 247.042 C 245.148 246.482,248.877 245.799,250.758 245.525 C 252.640 245.251,255.065 244.842,256.149 244.616 C 257.232 244.391,260.874 243.800,264.243 243.303 C 267.611 242.807,270.553 242.334,270.781 242.254 C 271.008 242.173,274.082 241.764,277.612 241.344 C 281.142 240.923,285.575 240.384,287.463 240.146 C 295.255 239.161,318.255 237.466,331.940 236.869 C 358.203 235.722,361.148 235.307,362.687 232.537 L 363.433 231.194 363.433 163.134 L 363.433 95.075 362.807 93.881 C 361.560 91.503,358.597 90.899,352.537 91.787 M215.075 103.555 C 210.401 103.752,209.906 103.883,208.619 105.273 C 207.117 106.893,207.060 107.205,206.921 114.556 C 206.772 122.465,206.935 123.504,208.589 125.207 C 211.179 127.873,215.064 128.518,225.970 128.095 C 237.474 127.648,238.945 125.647,237.934 111.823 C 237.348 103.804,237.203 103.698,226.567 103.498 C 222.709 103.426,217.537 103.452,215.075 103.555 M153.704 110.416 C 145.838 110.805,144.540 113.109,144.857 126.119 C 145.134 137.510,146.893 138.798,162.176 138.804 C 178.989 138.810,180.991 137.236,180.976 124.030 C 180.965 114.567,179.448 111.403,174.613 110.761 C 171.987 110.412,158.326 110.187,153.704 110.416 M264.842 115.220 C 261.813 115.870,260.875 117.442,260.669 122.223 C 260.351 129.603,262.259 131.004,272.192 130.685 C 280.156 130.430,281.730 128.491,280.634 120.290 C 280.019 115.687,279.226 115.229,271.575 115.064 C 268.574 115.000,265.545 115.070,264.842 115.220 M122.661 123.838 C 119.635 124.065,118.215 124.906,117.276 127.030 C 114.185 134.018,120.210 139.364,129.540 137.912 C 134.155 137.194,134.991 136.014,134.863 130.394 C 134.719 124.113,132.796 123.079,122.661 123.838 M221.886 137.665 C 218.455 138.046,217.562 139.230,217.370 143.652 C 217.057 150.891,218.367 152.127,226.273 152.051 C 234.669 151.970,235.326 151.485,235.475 145.259 C 235.641 138.272,235.122 137.744,227.910 137.564 C 225.612 137.507,222.901 137.552,221.886 137.665 M261.437 145.679 C 255.927 146.303,254.812 148.329,254.788 157.761 C 254.763 167.674,258.159 169.659,273.378 168.629 C 283.095 167.972,284.416 166.042,283.576 153.731 C 283.028 145.697,282.832 145.563,271.493 145.477 C 267.224 145.445,262.699 145.536,261.437 145.679 M193.881 151.829 C 184.092 152.616,182.853 154.152,183.033 165.263 C 183.210 176.124,184.035 176.737,198.500 176.739 C 213.251 176.741,214.030 176.211,214.264 166.020 C 214.555 153.309,213.340 152.059,200.448 151.807 C 197.657 151.753,194.701 151.762,193.881 151.829 M137.164 161.452 C 131.213 161.957,129.933 164.360,130.219 174.478 C 130.491 184.050,132.424 185.374,146.119 185.370 C 157.960 185.367,159.868 183.933,160.297 174.715 C 160.709 165.869,159.714 162.940,155.904 161.779 C 154.598 161.381,140.833 161.141,137.164 161.452 M231.045 168.556 C 221.714 169.469,220.816 170.311,220.645 178.318 C 220.422 188.695,221.271 189.406,233.881 189.391 C 246.663 189.375,247.244 188.817,246.730 177.033 C 246.520 172.219,246.181 171.095,244.670 170.200 C 242.577 168.960,235.562 168.114,231.045 168.556 M180.822 191.629 C 177.451 192.283,176.423 196.577,178.621 200.827 C 180.388 204.244,190.673 203.885,192.148 200.355 C 192.801 198.792,192.573 194.509,191.762 193.115 C 190.853 191.551,185.190 190.781,180.822 191.629 " stroke="none" fill="#fbfbfb" fill-rule="evenodd"></path><path id="path1" d="M0.000 149.254 L 0.000 298.507 200.000 298.507 L 400.000 298.507 400.000 149.254 L 400.000 0.000 200.000 0.000 L 0.000 0.000 0.000 149.254 M233.990 42.525 C 240.816 44.005,241.266 44.823,241.302 55.821 C 241.334 65.496,240.970 66.654,237.316 68.506 C 232.613 70.889,215.386 70.754,211.095 68.301 C 207.616 66.312,207.045 64.283,207.218 54.537 C 207.387 44.993,208.252 43.777,215.833 42.424 C 222.279 41.274,228.380 41.308,233.990 42.525 M165.686 43.340 C 169.386 44.946,169.941 53.689,166.491 56.031 C 163.888 57.797,154.031 57.586,151.976 55.720 C 149.604 53.565,149.804 45.608,152.275 43.797 C 153.902 42.606,163.260 42.286,165.686 43.340 M152.748 69.077 C 157.685 70.636,159.099 74.171,159.088 84.925 C 159.078 95.505,158.072 98.555,153.881 100.702 C 148.432 103.492,126.596 103.398,121.607 100.562 C 117.378 98.158,116.432 95.304,116.425 84.925 C 116.418 72.409,118.393 69.224,126.528 68.640 C 132.504 68.211,150.982 68.519,152.748 69.077 M200.135 77.047 C 202.990 77.840,203.952 80.147,203.982 86.269 C 204.018 93.658,202.743 95.021,195.285 95.572 C 188.055 96.105,183.176 95.129,181.415 92.797 C 178.813 89.350,179.617 79.556,182.649 77.775 C 184.376 76.760,197.181 76.227,200.135 77.047 M79.110 77.475 C 86.041 78.333,88.283 79.047,89.174 80.677 C 89.671 81.586,89.711 84.657,89.862 133.433 L 90.022 185.224 90.672 188.047 C 92.549 196.197,97.598 200.575,108.060 203.124 C 135.946 209.919,158.934 221.171,177.313 237.023 C 183.682 242.515,184.470 243.981,179.893 241.821 C 172.679 238.415,164.404 234.588,162.388 233.724 C 161.321 233.267,159.172 232.332,157.612 231.648 C 148.825 227.789,136.602 223.225,127.761 220.501 C 113.064 215.974,104.692 214.364,80.149 211.346 C 73.025 210.470,72.518 210.375,71.593 209.745 C 68.759 207.815,68.929 212.297,69.022 142.041 L 69.104 80.350 70.012 79.056 C 71.500 76.934,72.848 76.700,79.110 77.475 M325.672 77.927 C 326.696 78.331,327.673 79.856,328.053 81.642 C 328.274 82.677,328.346 102.040,328.290 144.776 L 328.209 206.418 327.408 208.126 C 326.033 211.061,325.257 211.291,314.030 212.087 C 302.735 212.888,294.020 214.324,281.493 217.448 C 275.789 218.870,265.355 222.153,259.851 224.258 C 253.411 226.720,244.968 230.141,240.896 231.939 C 239.336 232.628,237.187 233.569,236.119 234.030 C 233.940 234.972,230.325 236.566,225.672 238.638 C 223.948 239.406,222.000 240.249,221.343 240.512 C 220.687 240.775,220.015 241.088,219.851 241.207 C 218.538 242.164,214.844 243.330,214.432 242.919 C 213.406 241.892,230.390 228.700,239.701 223.293 C 240.933 222.577,242.545 221.620,243.284 221.164 C 245.199 219.982,256.878 214.214,258.657 213.571 C 259.478 213.274,260.284 212.932,260.448 212.811 C 262.417 211.354,281.224 205.312,290.597 203.125 C 297.761 201.453,302.162 198.547,304.821 193.731 C 307.263 189.312,307.232 190.021,307.435 132.388 C 307.597 86.582,307.655 82.161,308.104 81.343 C 309.158 79.422,310.212 78.925,314.139 78.497 C 315.639 78.334,318.343 78.013,320.149 77.784 C 323.454 77.364,324.301 77.386,325.672 77.927 M276.018 81.244 C 279.133 82.396,280.034 85.383,279.558 92.987 C 279.144 99.614,278.240 100.149,267.463 100.149 C 255.501 100.149,254.900 99.705,254.841 90.810 C 254.776 81.111,255.951 80.257,268.955 80.550 C 273.434 80.651,274.769 80.782,276.018 81.244 M47.612 91.489 C 52.848 92.387,53.026 92.434,54.109 93.197 C 56.071 94.579,55.919 89.998,56.003 150.299 C 56.089 211.695,55.911 206.911,58.284 211.629 C 61.932 218.882,67.771 221.467,86.707 224.213 C 90.150 224.712,93.045 225.168,93.140 225.227 C 93.235 225.286,95.322 225.690,97.776 226.125 C 110.732 228.418,126.568 232.618,137.313 236.610 C 149.509 241.141,161.822 246.954,160.990 247.786 C 160.755 248.021,159.277 247.780,151.642 246.262 C 144.565 244.856,136.043 243.496,127.164 242.358 C 97.517 238.556,85.071 237.527,48.060 235.817 C 36.027 235.261,34.610 234.638,33.737 229.522 C 33.506 228.170,33.436 208.239,33.496 161.343 L 33.582 95.075 34.216 93.704 C 35.778 90.327,38.354 89.901,47.612 91.489 M361.696 92.116 C 363.993 93.819,363.902 90.685,363.812 164.631 L 363.731 230.896 362.985 232.388 C 361.453 235.452,360.074 235.736,342.687 236.571 C 332.888 237.042,316.212 237.993,308.507 238.520 C 296.319 239.355,276.317 241.609,265.970 243.314 C 263.918 243.652,259.821 244.316,256.866 244.789 C 248.026 246.204,242.986 247.112,240.226 247.786 C 237.587 248.431,236.716 248.405,236.716 247.680 C 236.716 247.303,246.791 242.190,250.000 240.939 C 250.821 240.618,252.701 239.860,254.179 239.253 C 267.723 233.690,283.758 229.328,301.940 226.259 C 330.812 221.385,335.611 219.580,339.346 212.186 C 341.249 208.420,341.171 210.969,341.190 151.194 C 341.209 90.724,341.049 95.425,343.144 93.777 C 345.730 91.743,359.526 90.508,361.696 92.116 M235.246 103.904 C 237.747 105.272,238.808 110.126,238.429 118.456 C 238.062 126.517,236.291 127.878,225.534 128.374 C 208.171 129.173,205.390 126.747,206.556 111.817 C 207.235 103.127,207.544 102.978,224.649 103.109 C 233.837 103.180,233.937 103.187,235.246 103.904 M173.825 110.455 C 180.132 111.076,182.161 115.895,181.181 127.922 C 180.358 138.018,177.179 139.599,158.955 138.969 C 146.049 138.523,144.488 136.974,144.481 124.607 C 144.473 110.473,145.542 109.683,164.179 110.055 C 168.037 110.132,172.378 110.312,173.825 110.455 M274.061 114.907 C 279.983 115.312,280.845 116.243,281.125 122.542 C 281.439 129.609,279.372 131.188,270.060 130.996 C 262.014 130.829,260.495 129.656,260.464 123.582 C 260.429 116.723,261.211 115.599,266.567 114.817 C 267.929 114.618,270.256 114.646,274.061 114.907 M133.055 124.315 C 135.692 125.910,136.137 134.163,133.719 136.636 C 131.484 138.922,122.913 138.923,119.514 136.638 C 115.006 133.607,115.118 126.458,119.710 124.093 C 121.289 123.279,131.627 123.451,133.055 124.315 M232.454 137.488 C 235.090 137.893,235.991 140.136,235.755 145.708 C 235.536 150.880,234.826 151.679,229.913 152.287 C 223.315 153.103,218.904 152.072,217.617 149.413 C 216.108 146.296,217.006 139.676,219.150 138.115 C 220.384 137.217,228.268 136.845,232.454 137.488 M280.895 146.066 C 283.498 147.326,284.003 149.314,283.980 158.209 C 283.961 165.711,282.863 167.542,277.910 168.326 C 268.963 169.743,259.074 168.967,256.651 166.659 C 254.370 164.485,253.776 158.525,255.053 150.610 C 255.856 145.628,258.098 144.968,273.134 145.282 C 278.958 145.404,279.677 145.476,280.895 146.066 M204.179 151.652 C 213.570 152.367,214.478 153.471,214.478 164.179 C 214.478 176.580,214.128 176.860,198.657 176.864 C 187.441 176.866,186.903 176.776,184.911 174.571 C 182.758 172.189,182.634 171.582,182.741 163.941 L 182.836 157.164 183.708 155.707 C 185.349 152.965,187.569 152.025,193.256 151.661 C 198.642 151.317,199.777 151.316,204.179 151.652 M156.806 161.895 C 160.153 163.536,160.732 165.346,160.516 173.507 C 160.236 184.100,158.371 185.672,146.084 185.672 C 131.565 185.672,130.015 184.353,130.200 172.152 C 130.366 161.189,130.777 160.907,146.418 160.997 L 155.075 161.047 156.806 161.895 M238.431 168.534 C 246.418 169.394,246.930 169.959,247.113 178.090 C 247.336 187.979,246.520 189.112,238.829 189.597 C 222.635 190.616,220.448 189.368,220.448 179.104 C 220.448 169.565,220.787 169.282,233.655 168.094 C 233.860 168.075,236.009 168.273,238.431 168.534 M189.748 191.490 C 192.169 192.209,192.372 192.604,192.486 196.827 C 192.575 200.147,192.529 200.527,191.956 201.255 C 189.607 204.241,180.296 204.147,178.397 201.117 C 177.193 199.196,177.046 194.905,178.121 193.065 C 179.216 191.189,185.753 190.303,189.748 191.490 " stroke="none" fill="#141c24" fill-rule="evenodd"></path><path id="path2" d="M220.821 42.002 C 221.190 42.073,221.795 42.073,222.164 42.002 C 222.534 41.931,222.231 41.872,221.493 41.872 C 220.754 41.872,220.451 41.931,220.821 42.002 M227.243 42.005 C 227.697 42.074,228.368 42.072,228.735 42.001 C 229.103 41.930,228.731 41.874,227.910 41.876 C 227.090 41.879,226.789 41.937,227.243 42.005 M158.142 42.906 C 158.844 42.969,159.919 42.968,160.530 42.904 C 161.142 42.839,160.567 42.788,159.254 42.789 C 157.940 42.790,157.440 42.842,158.142 42.906 M240.481 47.015 C 240.726 48.113,240.897 48.351,240.891 47.587 C 240.888 47.272,240.750 46.813,240.583 46.567 C 240.362 46.240,240.334 46.361,240.481 47.015 M150.552 50.149 C 150.552 51.545,150.603 52.116,150.666 51.418 C 150.729 50.720,150.729 49.578,150.666 48.881 C 150.603 48.183,150.552 48.754,150.552 50.149 M168.448 49.254 C 168.448 50.157,168.504 50.526,168.572 50.075 C 168.640 49.623,168.640 48.884,168.572 48.433 C 168.504 47.981,168.448 48.351,168.448 49.254 M240.965 49.851 C 240.965 50.425,241.026 50.660,241.101 50.373 C 241.176 50.086,241.176 49.616,241.101 49.328 C 241.026 49.041,240.965 49.276,240.965 49.851 M207.233 51.642 C 207.233 52.216,207.295 52.451,207.370 52.164 C 207.445 51.877,207.445 51.407,207.370 51.119 C 207.295 50.832,207.233 51.067,207.233 51.642 M168.094 52.588 C 168.075 52.861,167.982 53.332,167.888 53.632 C 167.725 54.151,167.734 54.151,168.057 53.647 C 168.245 53.355,168.338 52.885,168.264 52.603 C 168.142 52.140,168.126 52.139,168.094 52.588 M155.597 56.922 C 155.884 56.997,156.354 56.997,156.642 56.922 C 156.929 56.847,156.694 56.786,156.119 56.786 C 155.545 56.786,155.310 56.847,155.597 56.922 M161.866 56.922 C 162.153 56.997,162.623 56.997,162.910 56.922 C 163.198 56.847,162.963 56.786,162.388 56.786 C 161.813 56.786,161.578 56.847,161.866 56.922 M240.971 62.239 C 240.974 62.896,241.035 63.129,241.107 62.758 C 241.178 62.386,241.175 61.849,241.101 61.564 C 241.026 61.278,240.967 61.582,240.971 62.239 M126.486 68.872 C 127.016 68.938,127.956 68.939,128.575 68.875 C 129.195 68.810,128.761 68.756,127.612 68.755 C 126.463 68.753,125.956 68.806,126.486 68.872 M148.735 68.871 C 149.189 68.940,149.861 68.938,150.228 68.867 C 150.595 68.796,150.224 68.740,149.403 68.742 C 148.582 68.744,148.282 68.802,148.735 68.871 M226.343 70.057 C 226.631 70.132,227.101 70.132,227.388 70.057 C 227.675 69.981,227.440 69.920,226.866 69.920 C 226.291 69.920,226.056 69.981,226.343 70.057 M195.750 76.928 C 196.121 76.999,196.658 76.996,196.944 76.922 C 197.229 76.847,196.925 76.788,196.269 76.792 C 195.612 76.795,195.378 76.856,195.750 76.928 M73.806 77.221 C 74.093 77.296,74.563 77.296,74.851 77.221 C 75.138 77.146,74.903 77.084,74.328 77.084 C 73.754 77.084,73.519 77.146,73.806 77.221 M322.463 77.826 C 322.914 77.894,323.653 77.894,324.104 77.826 C 324.556 77.757,324.187 77.701,323.284 77.701 C 322.381 77.701,322.011 77.757,322.463 77.826 M116.802 79.254 C 116.804 80.075,116.862 80.375,116.931 79.921 C 116.999 79.468,116.997 78.796,116.927 78.429 C 116.856 78.062,116.800 78.433,116.802 79.254 M158.577 79.104 C 158.577 79.679,158.638 79.914,158.713 79.627 C 158.788 79.340,158.788 78.869,158.713 78.582 C 158.638 78.295,158.577 78.530,158.577 79.104 M327.830 82.687 C 327.830 83.261,327.892 83.496,327.967 83.209 C 328.042 82.922,328.042 82.451,327.967 82.164 C 327.892 81.877,327.830 82.112,327.830 82.687 M69.102 142.985 C 69.102 176.231,69.136 189.832,69.179 173.209 C 69.222 156.586,69.222 129.384,69.179 112.761 C 69.136 96.138,69.102 109.739,69.102 142.985 M116.487 84.776 C 116.487 85.351,116.549 85.586,116.624 85.299 C 116.699 85.011,116.699 84.541,116.624 84.254 C 116.549 83.966,116.487 84.201,116.487 84.776 M307.602 100.000 C 307.602 108.948,307.640 112.608,307.686 108.134 C 307.733 103.660,307.733 96.340,307.686 91.866 C 307.640 87.392,307.602 91.052,307.602 100.000 M203.680 86.716 C 203.681 87.866,203.735 88.299,203.800 87.680 C 203.865 87.061,203.863 86.120,203.798 85.590 C 203.732 85.060,203.679 85.567,203.680 86.716 M279.190 86.418 C 279.192 87.239,279.250 87.539,279.319 87.085 C 279.387 86.632,279.385 85.960,279.315 85.593 C 279.244 85.226,279.188 85.597,279.190 86.418 M116.806 90.448 C 116.806 91.351,116.862 91.720,116.930 91.269 C 116.999 90.817,116.999 90.078,116.930 89.627 C 116.862 89.175,116.806 89.545,116.806 90.448 M41.269 90.952 C 41.556 91.027,42.026 91.027,42.313 90.952 C 42.601 90.877,42.366 90.816,41.791 90.816 C 41.216 90.816,40.981 90.877,41.269 90.952 M279.190 94.179 C 279.192 95.000,279.250 95.300,279.319 94.847 C 279.387 94.393,279.385 93.721,279.315 93.354 C 279.244 92.987,279.188 93.358,279.190 94.179 M255.001 94.179 C 255.004 94.836,255.065 95.069,255.136 94.698 C 255.208 94.327,255.205 93.789,255.130 93.504 C 255.056 93.219,254.997 93.522,255.001 94.179 M265.459 100.221 C 266.409 100.280,267.886 100.280,268.742 100.220 C 269.598 100.160,268.821 100.111,267.015 100.112 C 265.209 100.112,264.509 100.162,265.459 100.221 M214.265 103.505 C 215.298 103.563,216.910 103.563,217.848 103.504 C 218.785 103.445,217.940 103.397,215.970 103.398 C 214.000 103.398,213.233 103.446,214.265 103.505 M227.388 103.505 C 228.414 103.563,230.093 103.563,231.119 103.505 C 232.146 103.446,231.306 103.399,229.254 103.399 C 227.201 103.399,226.362 103.446,227.388 103.505 M154.247 110.365 C 154.777 110.431,155.717 110.432,156.337 110.367 C 156.956 110.302,156.522 110.249,155.373 110.247 C 154.224 110.246,153.717 110.299,154.247 110.365 M164.695 110.365 C 165.225 110.431,166.165 110.432,166.784 110.367 C 167.404 110.302,166.970 110.249,165.821 110.247 C 164.672 110.246,164.165 110.299,164.695 110.365 M237.986 112.687 C 237.989 113.343,238.050 113.577,238.122 113.205 C 238.193 112.834,238.190 112.297,238.116 112.011 C 238.041 111.726,237.982 112.030,237.986 112.687 M206.686 116.418 C 206.686 118.799,206.732 119.772,206.789 118.582 C 206.845 117.392,206.845 115.444,206.789 114.254 C 206.732 113.063,206.686 114.037,206.686 116.418 M180.666 117.910 C 180.666 118.485,180.728 118.720,180.803 118.433 C 180.878 118.146,180.878 117.675,180.803 117.388 C 180.728 117.101,180.666 117.336,180.666 117.910 M180.985 121.194 C 180.985 122.097,181.041 122.466,181.109 122.015 C 181.178 121.563,181.178 120.825,181.109 120.373 C 181.041 119.922,180.985 120.291,180.985 121.194 M144.590 124.776 C 144.590 126.664,144.639 127.437,144.698 126.493 C 144.757 125.549,144.757 124.004,144.698 123.060 C 144.639 122.116,144.590 122.888,144.590 124.776 M122.008 123.798 C 122.538 123.863,123.478 123.865,124.098 123.800 C 124.717 123.735,124.284 123.681,123.134 123.680 C 121.985 123.679,121.478 123.732,122.008 123.798 M129.328 123.788 C 129.616 123.863,130.086 123.863,130.373 123.788 C 130.660 123.713,130.425 123.651,129.851 123.651 C 129.276 123.651,129.041 123.713,129.328 123.788 M180.981 127.015 C 180.983 127.836,181.041 128.136,181.110 127.682 C 181.178 127.229,181.177 126.557,181.106 126.190 C 181.035 125.823,180.979 126.194,180.981 127.015 M225.292 128.275 C 225.822 128.341,226.762 128.342,227.381 128.278 C 228.001 128.213,227.567 128.159,226.418 128.158 C 225.269 128.156,224.762 128.209,225.292 128.275 M135.026 130.746 C 135.026 131.978,135.078 132.481,135.143 131.866 C 135.207 131.250,135.207 130.243,135.143 129.627 C 135.078 129.011,135.026 129.515,135.026 130.746 M269.337 130.966 C 270.122 131.028,271.331 131.027,272.024 130.964 C 272.717 130.902,272.075 130.851,270.597 130.852 C 269.119 130.853,268.553 130.904,269.337 130.966 M222.018 137.525 C 222.390 137.596,222.927 137.593,223.212 137.519 C 223.498 137.444,223.194 137.385,222.537 137.389 C 221.881 137.392,221.647 137.453,222.018 137.525 M226.343 137.534 C 227.287 137.593,228.832 137.593,229.776 137.534 C 230.720 137.475,229.948 137.426,228.060 137.426 C 226.172 137.426,225.399 137.475,226.343 137.534 M235.625 144.627 C 235.626 145.940,235.678 146.440,235.741 145.738 C 235.804 145.036,235.804 143.962,235.739 143.350 C 235.675 142.739,235.624 143.313,235.625 144.627 M217.113 145.224 C 217.114 146.373,217.168 146.807,217.233 146.187 C 217.297 145.568,217.296 144.628,217.230 144.098 C 217.164 143.568,217.112 144.075,217.113 145.224 M262.018 145.584 C 262.390 145.656,262.927 145.653,263.212 145.578 C 263.498 145.504,263.194 145.445,262.537 145.448 C 261.881 145.452,261.647 145.513,262.018 145.584 M277.541 145.584 C 277.912 145.656,278.449 145.653,278.735 145.578 C 279.020 145.504,278.716 145.445,278.060 145.448 C 277.403 145.452,277.169 145.513,277.541 145.584 M55.960 163.582 C 55.960 172.037,55.998 175.496,56.045 171.269 C 56.091 167.041,56.091 160.123,56.045 155.896 C 55.998 151.668,55.960 155.127,55.960 163.582 M283.359 150.299 C 283.362 150.955,283.423 151.189,283.495 150.817 C 283.566 150.446,283.563 149.909,283.489 149.623 C 283.414 149.338,283.356 149.642,283.359 150.299 M193.358 151.852 C 193.728 151.924,194.332 151.924,194.701 151.852 C 195.071 151.781,194.769 151.723,194.030 151.723 C 193.291 151.723,192.989 151.781,193.358 151.852 M203.657 151.848 C 203.944 151.923,204.414 151.923,204.701 151.848 C 204.989 151.772,204.754 151.711,204.179 151.711 C 203.604 151.711,203.369 151.772,203.657 151.848 M189.925 152.146 C 190.213 152.221,190.683 152.221,190.970 152.146 C 191.257 152.071,191.022 152.010,190.448 152.010 C 189.873 152.010,189.638 152.071,189.925 152.146 M206.642 152.146 C 206.929 152.221,207.399 152.221,207.687 152.146 C 207.974 152.071,207.739 152.010,207.164 152.010 C 206.590 152.010,206.354 152.071,206.642 152.146 M228.138 152.155 C 228.592 152.223,229.264 152.221,229.631 152.150 C 229.998 152.080,229.627 152.023,228.806 152.026 C 227.985 152.028,227.685 152.086,228.138 152.155 M283.675 154.478 C 283.676 155.463,283.732 155.830,283.798 155.293 C 283.865 154.757,283.863 153.951,283.795 153.502 C 283.727 153.054,283.673 153.493,283.675 154.478 M327.904 179.701 C 327.904 194.067,327.940 199.944,327.985 192.761 C 328.030 185.578,328.030 173.825,327.985 166.642 C 327.940 159.459,327.904 165.336,327.904 179.701 M254.404 158.060 C 254.407 158.716,254.468 158.950,254.539 158.579 C 254.611 158.207,254.608 157.670,254.533 157.385 C 254.459 157.099,254.400 157.403,254.404 158.060 M307.596 168.060 C 307.596 173.396,307.637 175.578,307.686 172.910 C 307.736 170.243,307.736 165.877,307.686 163.209 C 307.637 160.541,307.596 162.724,307.596 168.060 M182.809 164.179 C 182.809 167.052,182.854 168.228,182.909 166.791 C 182.964 165.354,182.964 163.004,182.909 161.567 C 182.854 160.131,182.809 161.306,182.809 164.179 M283.667 161.045 C 283.670 161.866,283.728 162.166,283.796 161.712 C 283.865 161.259,283.863 160.587,283.792 160.220 C 283.721 159.853,283.665 160.224,283.667 161.045 M137.090 161.408 C 137.541 161.476,138.280 161.476,138.731 161.408 C 139.183 161.339,138.813 161.283,137.910 161.283 C 137.007 161.283,136.638 161.339,137.090 161.408 M152.765 161.405 C 153.136 161.477,153.673 161.474,153.959 161.399 C 154.244 161.324,153.940 161.266,153.284 161.269 C 152.627 161.273,152.393 161.334,152.765 161.405 M158.356 163.285 C 159.771 164.938,159.791 164.957,159.467 164.328 C 159.298 164.000,158.778 163.396,158.311 162.986 L 157.463 162.241 158.356 163.285 M214.426 164.328 C 214.428 165.478,214.482 165.911,214.546 165.292 C 214.611 164.673,214.610 163.732,214.544 163.202 C 214.478 162.672,214.425 163.179,214.426 164.328 M89.684 173.134 C 89.684 177.813,89.725 179.728,89.775 177.388 C 89.826 175.049,89.826 171.220,89.775 168.881 C 89.725 166.541,89.684 168.455,89.684 173.134 M266.642 168.862 C 266.929 168.938,267.399 168.938,267.687 168.862 C 267.974 168.787,267.739 168.726,267.164 168.726 C 266.590 168.726,266.354 168.787,266.642 168.862 M160.406 174.030 C 160.406 175.590,160.456 176.228,160.518 175.448 C 160.579 174.668,160.579 173.392,160.518 172.612 C 160.456 171.832,160.406 172.470,160.406 174.030 M246.657 174.627 C 246.657 175.530,246.713 175.899,246.781 175.448 C 246.849 174.996,246.849 174.257,246.781 173.806 C 246.713 173.354,246.657 173.724,246.657 174.627 M193.507 176.937 C 194.451 176.996,195.996 176.996,196.940 176.937 C 197.884 176.878,197.112 176.829,195.224 176.829 C 193.336 176.829,192.563 176.878,193.507 176.937 M201.119 176.935 C 201.817 176.998,202.959 176.998,203.657 176.935 C 204.354 176.872,203.784 176.821,202.388 176.821 C 200.993 176.821,200.422 176.872,201.119 176.935 M307.245 183.582 C 307.245 184.321,307.304 184.623,307.375 184.254 C 307.446 183.884,307.446 183.280,307.375 182.910 C 307.304 182.541,307.245 182.843,307.245 183.582 M246.648 183.881 C 246.648 184.619,246.707 184.922,246.778 184.552 C 246.849 184.183,246.849 183.578,246.778 183.209 C 246.707 182.840,246.648 183.142,246.648 183.881 M144.552 185.593 C 145.332 185.654,146.608 185.654,147.388 185.593 C 148.168 185.531,147.530 185.481,145.970 185.481 C 144.410 185.481,143.772 185.531,144.552 185.593 M239.478 189.460 C 239.765 189.535,240.235 189.535,240.522 189.460 C 240.810 189.384,240.575 189.323,240.000 189.323 C 239.425 189.323,239.190 189.384,239.478 189.460 M178.509 192.685 C 178.124 193.095,177.865 193.480,177.934 193.542 C 178.003 193.603,178.372 193.267,178.754 192.796 C 179.609 191.743,179.458 191.675,178.509 192.685 M55.612 200.299 C 55.612 201.201,55.668 201.571,55.736 201.119 C 55.805 200.668,55.805 199.929,55.736 199.478 C 55.668 199.026,55.612 199.396,55.612 200.299 M312.612 211.848 C 312.899 211.923,313.369 211.923,313.657 211.848 C 313.944 211.772,313.709 211.711,313.134 211.711 C 312.560 211.711,312.325 211.772,312.612 211.848 M309.481 212.151 C 309.852 212.223,310.390 212.220,310.675 212.145 C 310.961 212.071,310.657 212.012,310.000 212.016 C 309.343 212.019,309.110 212.080,309.481 212.151 M44.707 235.440 C 45.243 235.507,46.049 235.505,46.498 235.437 C 46.946 235.369,46.507 235.315,45.522 235.316 C 44.537 235.318,44.170 235.374,44.707 235.440 M49.781 235.739 C 50.318 235.805,51.124 235.804,51.573 235.736 C 52.021 235.668,51.582 235.613,50.597 235.615 C 49.612 235.617,49.245 235.672,49.781 235.739 M353.955 235.733 C 354.325 235.804,354.929 235.804,355.299 235.733 C 355.668 235.662,355.366 235.604,354.627 235.604 C 353.888 235.604,353.586 235.662,353.955 235.733 M54.552 236.037 C 55.086 236.103,55.959 236.103,56.493 236.037 C 57.026 235.971,56.590 235.916,55.522 235.916 C 54.455 235.916,54.019 235.971,54.552 236.037 M349.627 236.035 C 350.078 236.103,350.817 236.103,351.269 236.035 C 351.720 235.966,351.351 235.910,350.448 235.910 C 349.545 235.910,349.175 235.966,349.627 236.035 M60.672 236.325 C 60.959 236.400,61.429 236.400,61.716 236.325 C 62.004 236.250,61.769 236.189,61.194 236.189 C 60.619 236.189,60.384 236.250,60.672 236.325 M344.851 236.325 C 345.138 236.400,345.608 236.400,345.896 236.325 C 346.183 236.250,345.948 236.189,345.373 236.189 C 344.799 236.189,344.563 236.250,344.851 236.325 M66.045 236.624 C 66.332 236.699,66.802 236.699,67.090 236.624 C 67.377 236.549,67.142 236.487,66.567 236.487 C 65.993 236.487,65.757 236.549,66.045 236.624 M339.478 236.624 C 339.765 236.699,340.235 236.699,340.522 236.624 C 340.810 236.549,340.575 236.487,340.000 236.487 C 339.425 236.487,339.190 236.549,339.478 236.624 M332.612 236.922 C 332.899 236.997,333.369 236.997,333.657 236.922 C 333.944 236.847,333.709 236.786,333.134 236.786 C 332.560 236.786,332.325 236.847,332.612 236.922 M326.045 237.221 C 326.332 237.296,326.802 237.296,327.090 237.221 C 327.377 237.146,327.142 237.084,326.567 237.084 C 325.993 237.084,325.757 237.146,326.045 237.221 M82.015 237.524 C 82.384 237.595,82.989 237.595,83.358 237.524 C 83.728 237.453,83.425 237.395,82.687 237.395 C 81.948 237.395,81.646 237.453,82.015 237.524 M320.075 237.527 C 320.526 237.596,321.265 237.596,321.716 237.527 C 322.168 237.459,321.799 237.403,320.896 237.403 C 319.993 237.403,319.623 237.459,320.075 237.527 M85.597 237.823 C 85.966 237.894,86.571 237.894,86.940 237.823 C 87.310 237.751,87.007 237.693,86.269 237.693 C 85.530 237.693,85.228 237.751,85.597 237.823 M315.896 237.826 C 316.347 237.894,317.086 237.894,317.537 237.826 C 317.989 237.757,317.619 237.701,316.716 237.701 C 315.813 237.701,315.444 237.757,315.896 237.826 M89.183 238.122 C 89.554 238.193,90.091 238.190,90.377 238.116 C 90.662 238.041,90.358 237.982,89.701 237.986 C 89.045 237.989,88.811 238.050,89.183 238.122 M311.866 238.121 C 312.235 238.192,312.840 238.192,313.209 238.121 C 313.578 238.050,313.276 237.992,312.537 237.992 C 311.799 237.992,311.496 238.050,311.866 238.121 M179.701 239.552 C 180.258 240.127,180.781 240.597,180.863 240.597 C 180.945 240.597,180.557 240.127,180.000 239.552 C 179.443 238.978,178.920 238.507,178.838 238.507 C 178.756 238.507,179.145 238.978,179.701 239.552 M293.209 239.609 C 293.496 239.684,293.966 239.684,294.254 239.609 C 294.541 239.534,294.306 239.472,293.731 239.472 C 293.157 239.472,292.922 239.534,293.209 239.609 M108.134 239.907 C 108.422 239.982,108.892 239.982,109.179 239.907 C 109.466 239.832,109.231 239.771,108.657 239.771 C 108.082 239.771,107.847 239.832,108.134 239.907 M290.224 239.907 C 290.511 239.982,290.981 239.982,291.269 239.907 C 291.556 239.832,291.321 239.771,290.746 239.771 C 290.172 239.771,289.937 239.832,290.224 239.907 M287.836 240.206 C 288.123 240.281,288.593 240.281,288.881 240.206 C 289.168 240.131,288.933 240.069,288.358 240.069 C 287.784 240.069,287.549 240.131,287.836 240.206 " stroke="none" fill="#8c8c94" fill-rule="evenodd"></path><path id="path3" d="M89.697 124.030 C 89.697 146.522,89.733 155.680,89.776 144.380 C 89.819 133.080,89.819 114.677,89.776 103.484 C 89.733 92.292,89.697 101.537,89.697 124.030 M221.129 103.205 C 221.997 103.266,223.340 103.265,224.114 103.204 C 224.889 103.143,224.179 103.093,222.537 103.094 C 220.896 103.095,220.262 103.145,221.129 103.205 M168.287 110.360 C 168.658 110.432,169.196 110.429,169.481 110.354 C 169.766 110.280,169.463 110.221,168.806 110.225 C 168.149 110.228,167.916 110.289,168.287 110.360 M238.294 116.866 C 238.297 117.687,238.355 117.987,238.423 117.533 C 238.492 117.079,238.490 116.408,238.419 116.041 C 238.348 115.674,238.292 116.045,238.294 116.866 M280.971 123.731 C 280.974 124.388,281.035 124.622,281.107 124.250 C 281.178 123.879,281.175 123.342,281.101 123.056 C 281.026 122.771,280.967 123.075,280.971 123.731 M116.195 130.597 C 116.198 131.254,116.259 131.487,116.331 131.116 C 116.402 130.745,116.399 130.207,116.325 129.922 C 116.250 129.636,116.191 129.940,116.195 130.597 M143.644 161.117 C 144.745 161.174,146.625 161.174,147.823 161.117 C 149.020 161.061,148.119 161.014,145.821 161.013 C 143.522 161.013,142.543 161.059,143.644 161.117 M220.403 179.104 C 220.403 180.500,220.454 181.071,220.517 180.373 C 220.580 179.675,220.580 178.534,220.517 177.836 C 220.454 177.138,220.403 177.709,220.403 179.104 " stroke="none" fill="#7c7c84" fill-rule="evenodd"></path><path id="path4" d="M223.060 41.713 C 224.004 41.772,225.549 41.772,226.493 41.713 C 227.437 41.654,226.664 41.605,224.776 41.605 C 222.888 41.605,222.116 41.654,223.060 41.713 M218.881 41.997 C 219.168 42.072,219.638 42.072,219.925 41.997 C 220.213 41.922,219.978 41.860,219.403 41.860 C 218.828 41.860,218.593 41.922,218.881 41.997 M229.627 41.997 C 229.914 42.072,230.384 42.072,230.672 41.997 C 230.959 41.922,230.724 41.860,230.149 41.860 C 229.575 41.860,229.340 41.922,229.627 41.997 M241.306 56.269 C 241.306 58.075,241.356 58.775,241.415 57.825 C 241.474 56.875,241.474 55.397,241.414 54.541 C 241.354 53.685,241.305 54.463,241.306 56.269 M151.856 55.529 C 152.384 56.083,152.867 56.476,152.929 56.403 C 152.991 56.329,152.559 55.875,151.968 55.395 L 150.896 54.521 151.856 55.529 M158.142 57.234 C 158.844 57.297,159.919 57.296,160.530 57.232 C 161.142 57.168,160.567 57.116,159.254 57.117 C 157.940 57.118,157.440 57.171,158.142 57.234 M134.123 68.582 C 136.719 68.631,140.883 68.631,143.377 68.581 C 145.870 68.532,143.746 68.491,138.657 68.491 C 133.567 68.491,131.527 68.532,134.123 68.582 M116.786 77.015 C 116.786 77.590,116.847 77.825,116.922 77.537 C 116.997 77.250,116.997 76.780,116.922 76.493 C 116.847 76.205,116.786 76.440,116.786 77.015 M116.520 81.343 C 116.521 82.657,116.574 83.157,116.637 82.455 C 116.700 81.753,116.699 80.678,116.635 80.067 C 116.571 79.455,116.519 80.030,116.520 81.343 M158.929 84.925 C 158.930 87.881,158.974 89.049,159.029 87.522 C 159.083 85.995,159.083 83.577,159.028 82.149 C 158.973 80.721,158.929 81.970,158.929 84.925 M263.806 80.509 C 264.175 80.580,264.780 80.580,265.149 80.509 C 265.519 80.438,265.216 80.380,264.478 80.380 C 263.739 80.380,263.437 80.438,263.806 80.509 M203.651 82.687 C 203.651 83.261,203.713 83.496,203.788 83.209 C 203.863 82.922,203.863 82.451,203.788 82.164 C 203.713 81.877,203.651 82.112,203.651 82.687 M328.206 143.731 C 328.206 177.552,328.241 191.344,328.284 174.379 C 328.326 157.415,328.326 129.743,328.284 112.887 C 328.241 96.030,328.206 109.910,328.206 143.731 M203.970 86.567 C 203.970 87.470,204.026 87.840,204.094 87.388 C 204.163 86.937,204.163 86.198,204.094 85.746 C 204.026 85.295,203.970 85.664,203.970 86.567 M116.522 88.358 C 116.522 89.754,116.574 90.325,116.636 89.627 C 116.699 88.929,116.699 87.787,116.636 87.090 C 116.574 86.392,116.522 86.963,116.522 88.358 M279.512 90.299 C 279.513 91.940,279.563 92.574,279.623 91.706 C 279.684 90.839,279.683 89.496,279.622 88.721 C 279.561 87.947,279.511 88.657,279.512 90.299 M254.722 89.851 C 254.722 90.918,254.777 91.354,254.843 90.821 C 254.909 90.287,254.909 89.414,254.843 88.881 C 254.777 88.347,254.722 88.784,254.722 89.851 M39.334 90.664 C 39.870 90.731,40.676 90.729,41.125 90.661 C 41.573 90.593,41.134 90.539,40.149 90.540 C 39.164 90.542,38.797 90.598,39.334 90.664 M116.792 92.985 C 116.795 93.642,116.856 93.875,116.928 93.504 C 116.999 93.133,116.996 92.595,116.922 92.310 C 116.847 92.025,116.788 92.328,116.792 92.985 M190.522 95.740 C 191.138 95.804,192.146 95.804,192.761 95.740 C 193.377 95.675,192.873 95.623,191.642 95.623 C 190.410 95.623,189.907 95.675,190.522 95.740 M33.579 162.687 C 33.579 199.052,33.614 213.929,33.657 195.746 C 33.699 177.563,33.699 147.810,33.657 129.627 C 33.614 111.444,33.579 126.321,33.579 162.687 M341.340 150.746 C 341.340 180.545,341.375 192.735,341.418 177.836 C 341.461 162.937,341.461 138.556,341.418 123.657 C 341.375 108.757,341.340 120.948,341.340 150.746 M363.729 162.985 C 363.729 199.187,363.763 213.996,363.806 195.896 C 363.848 177.795,363.848 148.175,363.806 130.075 C 363.763 111.974,363.729 126.784,363.729 162.985 M55.921 100.896 C 55.921 102.127,55.974 102.631,56.038 102.015 C 56.103 101.399,56.103 100.392,56.038 99.776 C 55.974 99.160,55.921 99.664,55.921 100.896 M262.164 100.206 C 262.451 100.281,262.922 100.281,263.209 100.206 C 263.496 100.131,263.261 100.069,262.687 100.069 C 262.112 100.069,261.877 100.131,262.164 100.206 M270.675 100.211 C 271.046 100.283,271.584 100.280,271.869 100.205 C 272.155 100.130,271.851 100.072,271.194 100.075 C 270.537 100.079,270.304 100.140,270.675 100.211 M138.284 102.892 C 138.571 102.967,139.041 102.967,139.328 102.892 C 139.616 102.817,139.381 102.756,138.806 102.756 C 138.231 102.756,137.996 102.817,138.284 102.892 M216.351 103.204 C 217.053 103.267,218.128 103.266,218.739 103.202 C 219.351 103.138,218.776 103.086,217.463 103.087 C 216.149 103.088,215.649 103.141,216.351 103.204 M226.651 103.205 C 227.436 103.267,228.645 103.266,229.337 103.203 C 230.030 103.141,229.388 103.090,227.910 103.091 C 226.433 103.092,225.866 103.143,226.651 103.205 M237.986 110.299 C 237.989 110.955,238.050 111.189,238.122 110.817 C 238.193 110.446,238.190 109.909,238.116 109.623 C 238.041 109.338,237.982 109.642,237.986 110.299 M206.653 110.896 C 206.655 111.716,206.713 112.017,206.781 111.563 C 206.850 111.109,206.848 110.438,206.777 110.071 C 206.706 109.703,206.650 110.075,206.653 110.896 M158.731 110.072 C 159.757 110.130,161.437 110.130,162.463 110.072 C 163.489 110.013,162.649 109.966,160.597 109.966 C 158.545 109.966,157.705 110.013,158.731 110.072 M170.373 110.360 C 170.743 110.431,171.347 110.431,171.716 110.360 C 172.086 110.289,171.784 110.231,171.045 110.231 C 170.306 110.231,170.004 110.289,170.373 110.360 M238.298 114.030 C 238.298 114.933,238.354 115.302,238.423 114.851 C 238.491 114.399,238.491 113.660,238.423 113.209 C 238.354 112.757,238.298 113.127,238.298 114.030 M206.375 116.567 C 206.374 118.045,206.424 118.687,206.487 117.994 C 206.549 117.301,206.550 116.092,206.488 115.308 C 206.427 114.523,206.376 115.090,206.375 116.567 M268.291 114.846 C 268.994 114.909,270.068 114.908,270.680 114.844 C 271.291 114.780,270.716 114.728,269.403 114.729 C 268.090 114.730,267.589 114.783,268.291 114.846 M307.604 137.313 C 307.604 149.052,307.641 153.854,307.686 147.985 C 307.732 142.116,307.732 132.511,307.686 126.642 C 307.641 120.772,307.604 125.575,307.604 137.313 M144.570 119.552 C 144.572 120.537,144.628 120.904,144.694 120.368 C 144.760 119.831,144.759 119.025,144.691 118.577 C 144.623 118.128,144.568 118.567,144.570 119.552 M238.290 119.403 C 238.290 120.142,238.348 120.444,238.420 120.075 C 238.491 119.705,238.491 119.101,238.420 118.731 C 238.348 118.362,238.290 118.664,238.290 119.403 M280.971 121.642 C 280.974 122.299,281.035 122.532,281.107 122.161 C 281.178 121.789,281.175 121.252,281.101 120.967 C 281.026 120.681,280.967 120.985,280.971 121.642 M260.399 123.284 C 260.399 124.515,260.452 125.019,260.516 124.403 C 260.580 123.787,260.580 122.780,260.516 122.164 C 260.452 121.549,260.399 122.052,260.399 123.284 M181.279 124.328 C 181.282 125.149,181.340 125.450,181.408 124.996 C 181.477 124.542,181.475 123.871,181.404 123.503 C 181.333 123.136,181.277 123.507,181.279 124.328 M144.567 129.552 C 144.567 130.455,144.623 130.825,144.691 130.373 C 144.760 129.922,144.760 129.183,144.691 128.731 C 144.623 128.280,144.567 128.649,144.567 129.552 M228.731 128.265 C 229.019 128.341,229.489 128.341,229.776 128.265 C 230.063 128.190,229.828 128.129,229.254 128.129 C 228.679 128.129,228.444 128.190,228.731 128.265 M219.334 128.575 C 219.870 128.641,220.676 128.640,221.125 128.572 C 221.573 128.503,221.134 128.449,220.149 128.451 C 219.164 128.452,218.797 128.508,219.334 128.575 M55.954 138.955 C 55.953 144.045,55.994 146.169,56.044 143.675 C 56.094 141.182,56.094 137.018,56.044 134.422 C 55.995 131.826,55.954 133.866,55.954 138.955 M223.657 137.221 C 223.944 137.296,224.414 137.296,224.701 137.221 C 224.989 137.146,224.754 137.084,224.179 137.084 C 223.604 137.084,223.369 137.146,223.657 137.221 M160.537 139.028 C 161.899 139.084,164.048 139.083,165.313 139.028 C 166.577 138.972,165.463 138.926,162.836 138.927 C 160.209 138.927,159.174 138.973,160.537 139.028 M268.134 145.295 C 269.078 145.354,270.623 145.354,271.567 145.295 C 272.511 145.236,271.739 145.188,269.851 145.188 C 267.963 145.188,267.190 145.236,268.134 145.295 M197.090 151.549 C 197.377 151.624,197.847 151.624,198.134 151.549 C 198.422 151.474,198.187 151.413,197.612 151.413 C 197.037 151.413,196.802 151.474,197.090 151.549 M200.373 151.549 C 200.660 151.624,201.131 151.624,201.418 151.549 C 201.705 151.474,201.470 151.413,200.896 151.413 C 200.321 151.413,200.086 151.474,200.373 151.549 M224.265 152.460 C 225.215 152.519,226.692 152.519,227.548 152.459 C 228.404 152.398,227.627 152.350,225.821 152.350 C 224.015 152.351,223.315 152.400,224.265 152.460 M283.970 157.910 C 283.970 158.813,284.026 159.183,284.094 158.731 C 284.163 158.280,284.163 157.541,284.094 157.090 C 284.026 156.638,283.970 157.007,283.970 157.910 M214.421 160.448 C 214.423 161.433,214.478 161.800,214.545 161.263 C 214.611 160.727,214.610 159.921,214.542 159.472 C 214.474 159.024,214.419 159.463,214.421 160.448 M138.582 161.113 C 139.198 161.177,140.205 161.177,140.821 161.113 C 141.437 161.049,140.933 160.996,139.701 160.996 C 138.470 160.996,137.966 161.049,138.582 161.113 M150.665 161.111 C 151.195 161.177,152.135 161.178,152.755 161.113 C 153.374 161.049,152.940 160.995,151.791 160.993 C 150.642 160.992,150.135 161.045,150.665 161.111 M214.424 168.060 C 214.424 169.127,214.478 169.563,214.544 169.030 C 214.611 168.496,214.611 167.623,214.544 167.090 C 214.478 166.556,214.424 166.993,214.424 168.060 M264.851 168.862 C 265.138 168.938,265.608 168.938,265.896 168.862 C 266.183 168.787,265.948 168.726,265.373 168.726 C 264.799 168.726,264.563 168.787,264.851 168.862 M268.735 169.169 C 269.189 169.238,269.861 169.236,270.228 169.165 C 270.595 169.094,270.224 169.038,269.403 169.041 C 268.582 169.043,268.282 169.101,268.735 169.169 M246.988 179.403 C 246.988 182.276,247.033 183.451,247.088 182.015 C 247.143 180.578,247.143 178.228,247.088 176.791 C 247.033 175.354,246.988 176.530,246.988 179.403 M190.075 176.927 C 190.444 176.998,191.049 176.998,191.418 176.927 C 191.787 176.856,191.485 176.798,190.746 176.798 C 190.007 176.798,189.705 176.856,190.075 176.927 M205.448 176.922 C 205.735 176.997,206.205 176.997,206.493 176.922 C 206.780 176.847,206.545 176.786,205.970 176.786 C 205.396 176.786,205.160 176.847,205.448 176.922 M307.268 179.701 C 307.268 181.097,307.320 181.668,307.383 180.970 C 307.446 180.272,307.446 179.131,307.383 178.433 C 307.320 177.735,307.268 178.306,307.268 179.701 M55.943 183.731 C 55.943 186.522,55.988 187.704,56.043 186.358 C 56.098 185.012,56.098 182.728,56.043 181.283 C 55.989 179.839,55.943 180.940,55.943 183.731 M306.947 184.776 C 306.947 185.515,307.005 185.817,307.076 185.448 C 307.147 185.078,307.147 184.474,307.076 184.104 C 307.005 183.735,306.947 184.037,306.947 184.776 M221.493 186.959 C 221.493 187.010,221.929 187.447,222.463 187.929 L 223.433 188.806 222.556 187.836 C 221.739 186.932,221.493 186.728,221.493 186.959 M231.866 189.772 C 232.728 189.833,234.138 189.833,235.000 189.772 C 235.862 189.712,235.157 189.663,233.433 189.663 C 231.709 189.663,231.004 189.712,231.866 189.772 M183.209 191.266 C 184.235 191.324,185.914 191.324,186.940 191.266 C 187.966 191.208,187.127 191.160,185.075 191.160 C 183.022 191.160,182.183 191.208,183.209 191.266 M94.925 196.866 C 95.482 197.440,96.005 197.910,96.087 197.910 C 96.169 197.910,95.781 197.440,95.224 196.866 C 94.667 196.291,94.144 195.821,94.062 195.821 C 93.980 195.821,94.368 196.291,94.925 196.866 M183.799 203.499 C 184.329 203.565,185.270 203.566,185.889 203.501 C 186.508 203.437,186.075 203.383,184.925 203.382 C 183.776 203.380,183.269 203.433,183.799 203.499 M320.224 211.554 C 320.593 211.625,321.198 211.625,321.567 211.554 C 321.937 211.483,321.634 211.425,320.896 211.425 C 320.157 211.425,319.854 211.483,320.224 211.554 M315.004 211.856 C 315.458 211.925,316.129 211.923,316.497 211.852 C 316.864 211.781,316.493 211.725,315.672 211.727 C 314.851 211.729,314.550 211.787,315.004 211.856 M311.716 212.146 C 312.004 212.221,312.474 212.221,312.761 212.146 C 313.049 212.071,312.813 212.010,312.239 212.010 C 311.664 212.010,311.429 212.071,311.716 212.146 M61.045 215.821 C 61.686 216.478,62.278 217.015,62.360 217.015 C 62.442 217.015,61.985 216.478,61.343 215.821 C 60.702 215.164,60.110 214.627,60.028 214.627 C 59.946 214.627,60.404 215.164,61.045 215.821 M336.255 216.493 L 335.075 217.761 336.343 216.581 C 337.041 215.932,337.612 215.361,337.612 215.313 C 337.612 215.087,337.352 215.313,336.255 216.493 M40.821 235.435 C 41.190 235.506,41.795 235.506,42.164 235.435 C 42.534 235.363,42.231 235.305,41.493 235.305 C 40.754 235.305,40.451 235.363,40.821 235.435 M46.045 235.728 C 46.332 235.803,46.802 235.803,47.090 235.728 C 47.377 235.653,47.142 235.592,46.567 235.592 C 45.993 235.592,45.757 235.653,46.045 235.728 M52.313 236.027 C 52.601 236.102,53.071 236.102,53.358 236.027 C 53.646 235.952,53.410 235.890,52.836 235.890 C 52.261 235.890,52.026 235.952,52.313 236.027 M57.985 236.333 C 58.437 236.402,59.175 236.402,59.627 236.333 C 60.078 236.265,59.709 236.209,58.806 236.209 C 57.903 236.209,57.534 236.265,57.985 236.333 M346.944 236.334 C 347.398 236.402,348.070 236.400,348.437 236.330 C 348.804 236.259,348.433 236.203,347.612 236.205 C 346.791 236.207,346.491 236.265,346.944 236.334 M341.269 236.624 C 341.556 236.699,342.026 236.699,342.313 236.624 C 342.601 236.549,342.366 236.487,341.791 236.487 C 341.216 236.487,340.981 236.549,341.269 236.624 M334.701 236.922 C 334.989 236.997,335.459 236.997,335.746 236.922 C 336.034 236.847,335.799 236.786,335.224 236.786 C 334.649 236.786,334.414 236.847,334.701 236.922 M75.000 237.221 C 75.287 237.296,75.757 237.296,76.045 237.221 C 76.332 237.146,76.097 237.084,75.522 237.084 C 74.948 237.084,74.713 237.146,75.000 237.221 M329.179 237.226 C 329.549 237.297,330.153 237.297,330.522 237.226 C 330.892 237.154,330.590 237.096,329.851 237.096 C 329.112 237.096,328.810 237.154,329.179 237.226 M79.183 237.528 C 79.637 237.596,80.309 237.594,80.676 237.524 C 81.043 237.453,80.672 237.397,79.851 237.399 C 79.030 237.401,78.729 237.459,79.183 237.528 M323.513 237.530 C 324.049 237.596,324.855 237.595,325.304 237.527 C 325.752 237.459,325.313 237.404,324.328 237.406 C 323.343 237.408,322.976 237.463,323.513 237.530 M319.478 237.818 C 319.765 237.893,320.235 237.893,320.522 237.818 C 320.810 237.743,320.575 237.681,320.000 237.681 C 319.425 237.681,319.190 237.743,319.478 237.818 M309.627 238.415 C 309.914 238.490,310.384 238.490,310.672 238.415 C 310.959 238.340,310.724 238.278,310.149 238.278 C 309.575 238.278,309.340 238.340,309.627 238.415 M181.045 240.597 C 181.853 241.418,182.582 242.090,182.664 242.090 C 182.746 242.090,182.152 241.418,181.343 240.597 C 180.535 239.776,179.806 239.104,179.724 239.104 C 179.642 239.104,180.236 239.776,181.045 240.597 M103.657 239.609 C 103.944 239.684,104.414 239.684,104.701 239.609 C 104.989 239.534,104.754 239.472,104.179 239.472 C 103.604 239.472,103.369 239.534,103.657 239.609 M295.153 239.614 C 295.524 239.686,296.061 239.683,296.347 239.608 C 296.632 239.533,296.328 239.475,295.672 239.478 C 295.015 239.482,294.781 239.543,295.153 239.614 M292.313 239.907 C 292.601 239.982,293.071 239.982,293.358 239.907 C 293.646 239.832,293.410 239.771,292.836 239.771 C 292.261 239.771,292.026 239.832,292.313 239.907 " stroke="none" fill="#6c6c7c" fill-rule="evenodd"></path></g></svg>